<svg width="187" height="186" viewBox="0 0 187 186" fill="none" xmlns="http://www.w3.org/2000/svg">
<path d="M93.5282 46.3816C93.5282 71.9974 72.7815 92.7632 47.1892 92.7632H0.850098V46.3816C0.850098 20.7657 21.5968 0 47.1892 0C72.7815 0 93.5282 20.7657 93.5282 46.3816Z" fill="#4648FF"/>
<path d="M93.5283 139.145C93.5283 113.529 114.275 92.7632 139.867 92.7632H186.206V139.145C186.206 164.761 165.46 185.526 139.867 185.526C114.275 185.526 93.5283 164.761 93.5283 139.145Z" fill="#4648FF"/>
<path d="M0.850098 139.145C0.850098 164.761 21.5968 185.526 47.1892 185.526H93.5282V139.145C93.5282 113.529 72.7815 92.7632 47.1892 92.7632C21.5968 92.7632 0.850098 113.529 0.850098 139.145Z" fill="#FF7F65"/>
<path d="M186.206 46.3816C186.206 20.7657 165.46 0 139.867 0H93.5283V46.3816C93.5283 71.9974 114.275 92.7632 139.867 92.7632C165.46 92.7632 186.206 71.9974 186.206 46.3816Z" fill="#FF7F65"/>
</svg>
