<svg width="126" height="31" viewBox="0 0 126 31" fill="none" xmlns="http://www.w3.org/2000/svg">
<path d="M11 10C11 13.0376 8.53756 15.5 5.5 15.5H0V10C0 6.96243 2.46243 4.5 5.5 4.5C8.53756 4.5 11 6.96243 11 10Z" fill="#4648FF"/>
<path d="M11 21C11 17.9624 13.4624 15.5 16.5 15.5H22V21C22 24.0376 19.5376 26.5 16.5 26.5C13.4624 26.5 11 24.0376 11 21Z" fill="#4648FF"/>
<path d="M0 21C0 24.0376 2.46243 26.5 5.5 26.5H11V21C11 17.9624 8.53756 15.5 5.5 15.5C2.46243 15.5 0 17.9624 0 21Z" fill="#FF7F65"/>
<path d="M22 10C22 6.96243 19.5376 4.5 16.5 4.5H11V10C11 13.0376 13.4624 15.5 16.5 15.5C19.5376 15.5 22 13.0376 22 10Z" fill="#FF7F65"/>
<path d="M30 9.79268H34.0253C34.5542 9.79268 35.0537 9.8523 35.5238 9.97154C36.0037 10.0799 36.4199 10.2696 36.7725 10.5406C37.1349 10.8008 37.4189 11.1585 37.6246 11.6138C37.8401 12.0583 37.9478 12.6165 37.9478 13.2886C37.9478 14.1016 37.7568 14.7954 37.3748 15.3699C36.9929 15.9336 36.4346 16.2913 35.7001 16.4431L38.3444 21.3049H35.5972L33.423 16.7033H32.2918V21.3049H30V9.79268ZM32.2918 14.5569H33.6433C33.849 14.5569 34.0645 14.5515 34.2897 14.5407C34.5248 14.519 34.7354 14.4702 34.9215 14.3943C35.1075 14.3076 35.2593 14.1775 35.3769 14.0041C35.5042 13.8306 35.5679 13.5867 35.5679 13.2724C35.5679 12.9797 35.514 12.7466 35.4063 12.5732C35.2985 12.3997 35.1614 12.2696 34.9949 12.1829C34.8284 12.0854 34.6374 12.0203 34.422 11.9878C34.2065 11.9553 33.9959 11.939 33.7903 11.939H32.2918V14.5569Z" fill="#1E1E1E"/>
<path d="M46.0048 19.939C45.6523 20.4377 45.2066 20.8225 44.668 21.0935C44.1293 21.3645 43.571 21.5 42.9932 21.5C42.4447 21.5 41.9257 21.4024 41.436 21.2073C40.9561 21.0122 40.5349 20.7358 40.1725 20.378C39.82 20.0095 39.5408 19.5705 39.3352 19.061C39.1295 18.5515 39.0267 17.9824 39.0267 17.3537C39.0267 16.7249 39.1295 16.1558 39.3352 15.6463C39.5408 15.1369 39.82 14.7033 40.1725 14.3455C40.5349 13.977 40.9561 13.6951 41.436 13.5C41.9257 13.3049 42.4447 13.2073 42.9932 13.2073C43.5025 13.2073 43.9628 13.3049 44.3741 13.5C44.7953 13.6951 45.1479 13.977 45.4319 14.3455C45.7257 14.7033 45.951 15.1369 46.1077 15.6463C46.2644 16.1558 46.3427 16.7249 46.3427 17.3537V18.1179H41.2303C41.3184 18.584 41.5094 18.958 41.8032 19.2398C42.0971 19.5108 42.4594 19.6463 42.8904 19.6463C43.2527 19.6463 43.5564 19.5596 43.8012 19.3862C44.0558 19.2019 44.2762 18.9688 44.4623 18.687L46.0048 19.939ZM44.1391 16.4594C44.1489 16.0474 44.0265 15.6951 43.7718 15.4024C43.5172 15.1098 43.1891 14.9634 42.7875 14.9634C42.5427 14.9634 42.3272 15.0068 42.1411 15.0935C41.955 15.1802 41.7934 15.294 41.6563 15.435C41.529 15.565 41.4262 15.7222 41.3478 15.9065C41.2793 16.0799 41.2401 16.2642 41.2303 16.4594H44.1391Z" fill="#1E1E1E"/>
<path d="M46.9336 13.4024H49.3135L51.1205 18.7683H51.1499L52.8246 13.4024H55.043L52.2223 21.3049H49.8865L46.9336 13.4024Z" fill="#1E1E1E"/>
<path d="M55.8754 13.4024H58.0791V21.3049H55.8754V13.4024ZM55.6991 10.9146C55.6991 10.5244 55.8216 10.1938 56.0664 9.92276C56.321 9.64092 56.6247 9.5 56.9772 9.5C57.3298 9.5 57.6285 9.64092 57.8734 9.92276C58.128 10.1938 58.2553 10.5244 58.2553 10.9146C58.2553 11.3049 58.128 11.6409 57.8734 11.9228C57.6285 12.1938 57.3298 12.3293 56.9772 12.3293C56.6247 12.3293 56.321 12.1938 56.0664 11.9228C55.8216 11.6409 55.6991 11.3049 55.6991 10.9146Z" fill="#1E1E1E"/>
<path d="M66.4201 19.939C66.0675 20.4377 65.6218 20.8225 65.0832 21.0935C64.5445 21.3645 63.9863 21.5 63.4084 21.5C62.86 21.5 62.3409 21.4024 61.8512 21.2073C61.3713 21.0122 60.9501 20.7358 60.5878 20.378C60.2352 20.0095 59.956 19.5705 59.7504 19.061C59.5447 18.5515 59.4419 17.9824 59.4419 17.3537C59.4419 16.7249 59.5447 16.1558 59.7504 15.6463C59.956 15.1369 60.2352 14.7033 60.5878 14.3455C60.9501 13.977 61.3713 13.6951 61.8512 13.5C62.3409 13.3049 62.86 13.2073 63.4084 13.2073C63.9177 13.2073 64.378 13.3049 64.7894 13.5C65.2105 13.6951 65.5631 13.977 65.8471 14.3455C66.1409 14.7033 66.3662 15.1369 66.5229 15.6463C66.6796 16.1558 66.7579 16.7249 66.7579 17.3537V18.1179H61.6455C61.7337 18.584 61.9246 18.958 62.2185 19.2398C62.5123 19.5108 62.8746 19.6463 63.3056 19.6463C63.668 19.6463 63.9716 19.5596 64.2164 19.3862C64.4711 19.2019 64.6914 18.9688 64.8775 18.687L66.4201 19.939ZM64.5543 16.4594C64.5641 16.0474 64.4417 15.6951 64.187 15.4024C63.9324 15.1098 63.6043 14.9634 63.2027 14.9634C62.9579 14.9634 62.7424 15.0068 62.5563 15.0935C62.3703 15.1802 62.2087 15.294 62.0715 15.435C61.9442 15.565 61.8414 15.7222 61.763 15.9065C61.6945 16.0799 61.6553 16.2642 61.6455 16.4594H64.5543Z" fill="#1E1E1E"/>
<path d="M67.246 13.4024H69.5965L71.0509 18.3618H71.0803L72.2996 13.4024H74.709L76.0311 18.3618H76.0605L77.3974 13.4024H79.6304L77.0889 21.3049H74.9146L73.4308 16.0528H73.4015L72.0793 21.3049H69.861L67.246 13.4024Z" fill="#1E1E1E"/>
<path d="M80.703 9.79268H82.9947V18.9634H87.2404V21.3049H80.703V9.79268Z" fill="#1E1E1E"/>
<path d="M87.9619 17.3537C87.9619 16.7249 88.0647 16.1558 88.2704 15.6463C88.4761 15.1369 88.7552 14.7033 89.1078 14.3455C89.4701 13.977 89.8913 13.6951 90.3712 13.5C90.8609 13.3049 91.38 13.2073 91.9284 13.2073C92.4769 13.2073 92.9911 13.3049 93.471 13.5C93.9607 13.6951 94.3818 13.977 94.7344 14.3455C95.0968 14.7033 95.3808 15.1369 95.5865 15.6463C95.7921 16.1558 95.895 16.7249 95.895 17.3537C95.895 17.9824 95.7921 18.5515 95.5865 19.061C95.3808 19.5705 95.0968 20.0095 94.7344 20.378C94.3818 20.7358 93.9607 21.0122 93.471 21.2073C92.9911 21.4024 92.4769 21.5 91.9284 21.5C91.38 21.5 90.8609 21.4024 90.3712 21.2073C89.8913 21.0122 89.4701 20.7358 89.1078 20.378C88.7552 20.0095 88.4761 19.5705 88.2704 19.061C88.0647 18.5515 87.9619 17.9824 87.9619 17.3537ZM90.1655 17.3537C90.1655 17.9499 90.3173 18.4323 90.6209 18.8008C90.9343 19.1694 91.3702 19.3537 91.9284 19.3537C92.4867 19.3537 92.9176 19.1694 93.2212 18.8008C93.5346 18.4323 93.6913 17.9499 93.6913 17.3537C93.6913 16.7575 93.5346 16.2751 93.2212 15.9065C92.9176 15.5379 92.4867 15.3537 91.9284 15.3537C91.3702 15.3537 90.9343 15.5379 90.6209 15.9065C90.3173 16.2751 90.1655 16.7575 90.1655 17.3537Z" fill="#1E1E1E"/>
<path d="M97.1929 13.4024H99.3966V14.6707H99.426C99.661 14.1829 99.9401 13.8198 100.263 13.5813C100.587 13.332 100.993 13.2073 101.483 13.2073C101.61 13.2073 101.737 13.2127 101.865 13.2236C101.992 13.2344 102.11 13.2561 102.217 13.2886V15.5163C102.061 15.4621 101.904 15.4241 101.747 15.4024C101.6 15.3699 101.444 15.3537 101.277 15.3537C100.856 15.3537 100.523 15.4187 100.278 15.5488C100.033 15.6789 99.8422 15.8631 99.7051 16.1016C99.5778 16.3293 99.4945 16.6057 99.4553 16.9309C99.4162 17.2561 99.3966 17.6138 99.3966 18.0041V21.3049H97.1929V13.4024Z" fill="#1E1E1E"/>
<path d="M109.675 19.939C109.322 20.4377 108.877 20.8225 108.338 21.0935C107.8 21.3645 107.241 21.5 106.663 21.5C106.115 21.5 105.596 21.4024 105.106 21.2073C104.626 21.0122 104.205 20.7358 103.843 20.378C103.49 20.0095 103.211 19.5705 103.005 19.061C102.8 18.5515 102.697 17.9824 102.697 17.3537C102.697 16.7249 102.8 16.1558 103.005 15.6463C103.211 15.1369 103.49 14.7033 103.843 14.3455C104.205 13.977 104.626 13.6951 105.106 13.5C105.596 13.3049 106.115 13.2073 106.663 13.2073C107.173 13.2073 107.633 13.3049 108.044 13.5C108.466 13.6951 108.818 13.977 109.102 14.3455C109.396 14.7033 109.621 15.1369 109.778 15.6463C109.935 16.1558 110.013 16.7249 110.013 17.3537V18.1179H104.901C104.989 18.584 105.18 18.958 105.473 19.2398C105.767 19.5108 106.13 19.6463 106.561 19.6463C106.923 19.6463 107.227 19.5596 107.471 19.3862C107.726 19.2019 107.946 18.9688 108.133 18.687L109.675 19.939ZM107.809 16.4594C107.819 16.0474 107.697 15.6951 107.442 15.4024C107.187 15.1098 106.859 14.9634 106.458 14.9634C106.213 14.9634 105.997 15.0068 105.811 15.0935C105.625 15.1802 105.464 15.294 105.327 15.435C105.199 15.565 105.096 15.7222 105.018 15.9065C104.949 16.0799 104.91 16.2642 104.901 16.4594H107.809Z" fill="#1E1E1E"/>
<path d="M111.397 19.9065C111.397 19.7005 111.431 19.5054 111.5 19.3211C111.569 19.1369 111.662 18.9797 111.779 18.8496C111.906 18.7087 112.053 18.6003 112.22 18.5244C112.386 18.4485 112.563 18.4106 112.749 18.4106C112.935 18.4106 113.111 18.4485 113.278 18.5244C113.444 18.6003 113.586 18.7087 113.704 18.8496C113.831 18.9797 113.929 19.1369 113.997 19.3211C114.066 19.5054 114.1 19.7005 114.1 19.9065C114.1 20.1125 114.066 20.3076 113.997 20.4919C113.929 20.6762 113.831 20.8388 113.704 20.9797C113.586 21.1098 113.444 21.2127 113.278 21.2886C113.111 21.3645 112.935 21.4024 112.749 21.4024C112.563 21.4024 112.386 21.3645 112.22 21.2886C112.053 21.2127 111.906 21.1098 111.779 20.9797C111.662 20.8388 111.569 20.6762 111.5 20.4919C111.431 20.3076 111.397 20.1125 111.397 19.9065Z" fill="#FF7F65"/>
<path d="M120.181 20.313H120.151C119.907 20.7358 119.578 21.0393 119.167 21.2236C118.766 21.4079 118.34 21.5 117.889 21.5C117.556 21.5 117.233 21.4458 116.919 21.3374C116.616 21.2398 116.346 21.0881 116.111 20.8821C115.876 20.6762 115.69 20.4214 115.553 20.1179C115.416 19.8144 115.347 19.4621 115.347 19.061C115.347 18.6057 115.421 18.2209 115.568 17.9065C115.725 17.5921 115.93 17.332 116.185 17.126C116.449 16.9201 116.748 16.7629 117.081 16.6545C117.414 16.5352 117.757 16.4485 118.109 16.3943C118.472 16.3401 118.829 16.3076 119.182 16.2967C119.544 16.2859 119.877 16.2805 120.181 16.2805C120.181 15.8469 120.039 15.5054 119.755 15.2561C119.481 14.9959 119.152 14.8659 118.77 14.8659C118.408 14.8659 118.075 14.9526 117.771 15.126C117.478 15.2886 117.213 15.5163 116.978 15.8089L115.803 14.4756C116.214 14.0528 116.694 13.7385 117.243 13.5325C117.791 13.3157 118.359 13.2073 118.947 13.2073C119.593 13.2073 120.122 13.2995 120.533 13.4837C120.955 13.6572 121.288 13.9173 121.532 14.2642C121.787 14.6111 121.963 15.0393 122.061 15.5488C122.159 16.0474 122.208 16.6274 122.208 17.2886V21.3049H120.181V20.313ZM119.637 17.8415C119.471 17.8415 119.26 17.8523 119.006 17.874C118.761 17.8848 118.521 17.9282 118.286 18.0041C118.06 18.0799 117.865 18.1938 117.698 18.3455C117.541 18.4973 117.463 18.7087 117.463 18.9797C117.463 19.2724 117.576 19.4892 117.801 19.6301C118.026 19.771 118.261 19.8415 118.506 19.8415C118.722 19.8415 118.927 19.8089 119.123 19.7439C119.329 19.6789 119.51 19.5867 119.667 19.4675C119.823 19.3482 119.946 19.1965 120.034 19.0122C120.132 18.8279 120.181 18.6111 120.181 18.3618V17.8415H119.637Z" fill="#1E1E1E"/>
<path d="M123.62 13.4024H125.824V21.3049H123.62V13.4024ZM123.444 10.9146C123.444 10.5244 123.566 10.1938 123.811 9.92276C124.066 9.64092 124.369 9.5 124.722 9.5C125.074 9.5 125.373 9.64092 125.618 9.92276C125.873 10.1938 126 10.5244 126 10.9146C126 11.3049 125.873 11.6409 125.618 11.9228C125.373 12.1938 125.074 12.3293 124.722 12.3293C124.369 12.3293 124.066 12.1938 123.811 11.9228C123.566 11.6409 123.444 11.3049 123.444 10.9146Z" fill="#1E1E1E"/>
</svg>
