<svg width="18" height="16" viewBox="0 0 18 16" fill="none" xmlns="http://www.w3.org/2000/svg">
<path d="M4.03014 1.03828C3.9963 1.07019 3.97091 1.15795 3.97091 1.22976C3.97091 1.48506 3.37861 2.49031 2.98093 2.90518C2.4817 3.43174 1.9994 3.74289 1.28865 3.99021C0.967113 4.10191 0.679426 4.22158 0.64558 4.25349C0.510198 4.37316 0.687887 4.55666 1.0348 4.66038C2.27017 5.00344 3.404 6.01667 3.84399 7.17351C4.13168 7.91548 4.36014 7.93941 4.56321 7.24531C4.82551 6.37569 5.8578 5.29863 6.8224 4.89175C8.06623 4.37316 8.09161 4.31732 7.22009 4.02212C5.94242 3.57535 4.99474 2.66583 4.57167 1.49304C4.46167 1.17391 4.36014 1.02233 4.25014 1.00637C4.16552 0.990412 4.06399 1.00637 4.03014 1.03828Z" fill="url(#paint0_linear_488_4699)"/>
<path d="M12.6355 2.56982C12.5847 2.60173 12.4747 2.84108 12.3901 3.10436C11.8994 4.71595 10.5286 6.04831 8.82788 6.54296C8.20174 6.72645 8.10866 6.77432 8.13405 6.92591C8.15097 7.05356 8.28635 7.13334 8.71788 7.26099C9.6571 7.54821 10.3086 7.92318 11.0025 8.56942C11.7132 9.23958 12.0771 9.7821 12.3478 10.6039C12.4578 10.907 12.5763 11.1942 12.6186 11.2421C12.7624 11.3937 12.9486 11.1623 13.1855 10.5161C13.7609 8.94439 14.9624 7.83542 16.6885 7.29291C17.5939 7.00569 17.6277 6.84613 16.8324 6.60678C14.9201 6.02437 13.7016 4.87551 13.0755 3.07244C12.8978 2.55386 12.8132 2.45813 12.6355 2.56982Z" fill="url(#paint1_linear_488_4699)"/>
<path d="M6.39916 8.06694C6.37377 8.09885 6.27224 8.36213 6.1707 8.64934C5.73071 9.88596 4.63919 10.8992 3.31074 11.2821C2.64229 11.4736 2.65922 11.6332 3.37844 11.8646C4.79149 12.3113 5.75609 13.2129 6.18762 14.4894C6.41608 15.1675 6.543 15.1675 6.79684 14.5053C7.32991 13.1251 8.27759 12.2635 9.72449 11.8326C10.0545 11.7369 10.1899 11.6571 10.1899 11.5614C10.1899 11.4656 10.0545 11.3859 9.72449 11.2901C9.00527 11.0747 8.54835 10.8194 8.01529 10.3407C7.40606 9.7982 7.05915 9.2876 6.8053 8.5935C6.62761 8.09087 6.49223 7.91535 6.39916 8.06694Z" fill="url(#paint2_linear_488_4699)"/>
<defs>
<linearGradient id="paint0_linear_488_4699" x1="0.600098" y1="7.74854" x2="9.09562" y2="5.14485" gradientUnits="userSpaceOnUse">
<stop stop-color="#4648FF"/>
<stop offset="0.650677" stop-color="#FF7262"/>
<stop offset="1" stop-color="#FFAEA5"/>
</linearGradient>
<linearGradient id="paint1_linear_488_4699" x1="8.13037" y1="11.2869" x2="19.0547" y2="7.97601" gradientUnits="userSpaceOnUse">
<stop stop-color="#4648FF"/>
<stop offset="0.650677" stop-color="#FF7262"/>
<stop offset="1" stop-color="#FFAEA5"/>
</linearGradient>
<linearGradient id="paint2_linear_488_4699" x1="2.82373" y1="15" x2="11.5102" y2="12.3771" gradientUnits="userSpaceOnUse">
<stop stop-color="#4648FF"/>
<stop offset="0.650677" stop-color="#FF7262"/>
<stop offset="1" stop-color="#FFAEA5"/>
</linearGradient>
</defs>
</svg>
