<svg width="300" height="300" viewBox="0 0 300 300" fill="none" xmlns="http://www.w3.org/2000/svg">
<path d="M224.953 74.9534C266.349 116.349 266.349 183.465 224.953 224.86L150 299.813L75.0468 224.86C33.6512 183.465 33.6512 116.349 75.0468 74.9534C116.442 33.5579 183.558 33.5579 224.953 74.9534Z" fill="url(#paint0_linear_492_4885)" fill-opacity="0.2"/>
<path d="M224.246 75.6605C265.251 116.666 265.251 183.148 224.246 224.153L150 298.399L75.7539 224.153C34.7489 183.148 34.7489 116.666 75.7539 75.6605C116.759 34.6555 183.241 34.6555 224.246 75.6605Z" stroke="#4648FF" stroke-opacity="0.2" stroke-width="2"/>
<g filter="url(#filter0_d_492_4885)">
<path d="M223.965 144.538C223.727 141.388 223.331 138.511 222.767 134.839H149.165C149.165 144.931 149.165 155.943 149.125 166.04H191.763C190.857 170.745 189.012 175.229 186.333 179.233C183.655 183.237 180.196 186.683 176.154 189.373C176.154 189.373 176.154 189.199 176.124 189.194C170.905 192.553 165.026 194.803 158.866 195.797C152.689 196.905 146.357 196.878 140.191 195.718C133.93 194.447 128.002 191.929 122.775 188.318C115.06 182.955 109.11 175.501 105.654 166.871C105.39 166.199 105.146 165.522 104.897 164.835V164.761L104.963 164.711C101.609 155.059 101.6 144.591 104.938 134.934C107.289 128.159 111.159 121.986 116.263 116.87C128.235 104.729 146.124 100.162 162.617 105.037C168.941 106.938 174.719 110.273 179.484 114.77L193.87 100.668C196.408 98.1546 199.042 95.7213 201.484 93.1237C194.189 86.4538 185.628 81.2561 176.286 77.8269C159.286 71.7838 140.688 71.624 123.582 77.3741C122.987 77.5731 122.394 77.7807 121.806 77.9961C103.351 84.7975 88.1691 98.136 79.2585 115.377C76.112 121.48 73.8206 127.971 72.4465 134.675C64.2985 174.371 89.0059 213.445 128.897 223.948C141.937 227.371 155.8 227.287 168.941 224.361C180.882 221.718 191.922 216.093 200.991 208.034C210.453 199.5 217.234 188.129 220.788 176.052C223.758 165.817 224.835 155.144 223.965 144.538Z" fill="#4648FF"/>
</g>
<defs>
<filter id="filter0_d_492_4885" x="50.8955" y="63.175" width="193.362" height="193.362" filterUnits="userSpaceOnUse" color-interpolation-filters="sRGB">
<feFlood flood-opacity="0" result="BackgroundImageFix"/>
<feColorMatrix in="SourceAlpha" type="matrix" values="0 0 0 0 0 0 0 0 0 0 0 0 0 0 0 0 0 0 127 0" result="hardAlpha"/>
<feOffset dy="10"/>
<feGaussianBlur stdDeviation="10"/>
<feComposite in2="hardAlpha" operator="out"/>
<feColorMatrix type="matrix" values="0 0 0 0 0.117647 0 0 0 0 0.117647 0 0 0 0 0.117647 0 0 0 0.25 0"/>
<feBlend mode="normal" in2="BackgroundImageFix" result="effect1_dropShadow_492_4885"/>
<feBlend mode="normal" in="SourceGraphic" in2="effect1_dropShadow_492_4885" result="shape"/>
</filter>
<linearGradient id="paint0_linear_492_4885" x1="299.907" y1="149.907" x2="70.5801" y2="277.13" gradientUnits="userSpaceOnUse">
<stop stop-color="#4648FF"/>
<stop offset="0.650677" stop-color="#FF7262"/>
<stop offset="1" stop-color="#FFAEA5"/>
</linearGradient>
</defs>
</svg>
