<svg width="237" height="70" viewBox="0 0 275 70" fill="none" xmlns="http://www.w3.org/2000/svg">
<g filter="url(#filter0_d_433_770)">
<g filter="url(#filter1_d_433_770)">
<path d="M35 17.5C35 21.6421 31.6421 25 27.5 25H20V17.5C20 13.3579 23.3579 10 27.5 10C31.6421 10 35 13.3579 35 17.5Z" fill="#4648FF"/>
<path d="M35 32.5C35 28.3579 38.3579 25 42.5 25H50V32.5C50 36.6421 46.6421 40 42.5 40C38.3579 40 35 36.6421 35 32.5Z" fill="#4648FF"/>
<path d="M20 32.5C20 36.6421 23.3579 40 27.5 40H35V32.5C35 28.3579 31.6421 25 27.5 25C23.3579 25 20 28.3579 20 32.5Z" fill="#FF7F65"/>
<path d="M50 17.5C50 13.3579 46.6421 10 42.5 10H35V17.5C35 21.6421 38.3579 25 42.5 25C46.6421 25 50 21.6421 50 17.5Z" fill="#FF7F65"/>
</g>
<path d="M62 16.439H68.4992C69.3531 16.439 70.1596 16.5285 70.9186 16.7073C71.6935 16.8699 72.3655 17.1545 72.9348 17.561C73.5199 17.9512 73.9785 18.4878 74.3105 19.1707C74.6584 19.8374 74.8324 20.6748 74.8324 21.6829C74.8324 22.9024 74.524 23.9431 73.9073 24.8049C73.2906 25.6504 72.3892 26.187 71.2033 26.4146L75.4728 33.7073H71.0372L67.5267 26.8049H65.7003V33.7073H62V16.439ZM65.7003 23.5854H67.8825C68.2146 23.5854 68.5625 23.5772 68.9262 23.561C69.3057 23.5285 69.6457 23.4553 69.9461 23.3415C70.2466 23.2114 70.4917 23.0163 70.6814 22.7561C70.887 22.4959 70.9898 22.1301 70.9898 21.6585C70.9898 21.2195 70.9028 20.8699 70.7289 20.6098C70.5549 20.3496 70.3335 20.1545 70.0647 20.0244C69.7959 19.878 69.4875 19.7805 69.1396 19.7317C68.7917 19.6829 68.4518 19.6585 68.1197 19.6585H65.7003V23.5854Z" fill="#FAFAFA"/>
<path d="M87.8411 31.6585C87.2719 32.4065 86.5524 32.9837 85.6827 33.3902C84.8129 33.7967 83.9116 34 82.9786 34C82.0931 34 81.255 33.8537 80.4643 33.561C79.6895 33.2683 79.0095 32.8537 78.4244 32.3171C77.8551 31.7642 77.4045 31.1057 77.0724 30.3415C76.7403 29.5772 76.5743 28.7236 76.5743 27.7805C76.5743 26.8374 76.7403 25.9837 77.0724 25.2195C77.4045 24.4553 77.8551 23.8049 78.4244 23.2683C79.0095 22.7154 79.6895 22.2927 80.4643 22C81.255 21.7073 82.0931 21.561 82.9786 21.561C83.8009 21.561 84.5441 21.7073 85.2083 22C85.8882 22.2927 86.4575 22.7154 86.9161 23.2683C87.3905 23.8049 87.7542 24.4553 88.0072 25.2195C88.2602 25.9837 88.3867 26.8374 88.3867 27.7805V28.9268H80.1322C80.2746 29.626 80.5829 30.187 81.0573 30.6098C81.5317 31.0163 82.1168 31.2195 82.8126 31.2195C83.3977 31.2195 83.8879 31.0894 84.2832 30.8293C84.6943 30.5528 85.0501 30.2033 85.3506 29.7805L87.8411 31.6585ZM84.8287 26.439C84.8446 25.8211 84.6469 25.2927 84.2358 24.8537C83.8246 24.4146 83.2949 24.1951 82.6465 24.1951C82.2512 24.1951 81.9033 24.2602 81.6029 24.3902C81.3024 24.5203 81.0415 24.6911 80.8201 24.9024C80.6145 25.0976 80.4485 25.3333 80.322 25.6098C80.2113 25.8699 80.1481 26.1463 80.1322 26.439H84.8287Z" fill="#FAFAFA"/>
<path d="M89.3407 21.8537H93.1833L96.1008 29.9024H96.1482L98.8523 21.8537H102.434L97.8798 33.7073H94.1083L89.3407 21.8537Z" fill="#FAFAFA"/>
<path d="M103.778 21.8537H107.336V33.7073H103.778V21.8537ZM103.493 18.122C103.493 17.5366 103.691 17.0407 104.086 16.6341C104.498 16.2114 104.988 16 105.557 16C106.126 16 106.609 16.2114 107.004 16.6341C107.415 17.0407 107.621 17.5366 107.621 18.122C107.621 18.7073 107.415 19.2114 107.004 19.6341C106.609 20.0406 106.126 20.2439 105.557 20.2439C104.988 20.2439 104.498 20.0406 104.086 19.6341C103.691 19.2114 103.493 18.7073 103.493 18.122Z" fill="#FAFAFA"/>
<path d="M120.803 31.6585C120.234 32.4065 119.514 32.9837 118.645 33.3902C117.775 33.7967 116.874 34 115.941 34C115.055 34 114.217 33.8537 113.426 33.561C112.652 33.2683 111.972 32.8537 111.386 32.3171C110.817 31.7642 110.367 31.1057 110.034 30.3415C109.702 29.5772 109.536 28.7236 109.536 27.7805C109.536 26.8374 109.702 25.9837 110.034 25.2195C110.367 24.4553 110.817 23.8049 111.386 23.2683C111.972 22.7154 112.652 22.2927 113.426 22C114.217 21.7073 115.055 21.561 115.941 21.561C116.763 21.561 117.506 21.7073 118.17 22C118.85 22.2927 119.42 22.7154 119.878 23.2683C120.353 23.8049 120.716 24.4553 120.969 25.2195C121.222 25.9837 121.349 26.8374 121.349 27.7805V28.9268H113.094C113.237 29.626 113.545 30.187 114.019 30.6098C114.494 31.0163 115.079 31.2195 115.775 31.2195C116.36 31.2195 116.85 31.0894 117.245 30.8293C117.656 30.5528 118.012 30.2033 118.313 29.7805L120.803 31.6585ZM117.791 26.439C117.807 25.8211 117.609 25.2927 117.198 24.8537C116.787 24.4146 116.257 24.1951 115.609 24.1951C115.213 24.1951 114.865 24.2602 114.565 24.3902C114.264 24.5203 114.004 24.6911 113.782 24.9024C113.577 25.0976 113.411 25.3333 113.284 25.6098C113.173 25.8699 113.11 26.1463 113.094 26.439H117.791Z" fill="#FAFAFA"/>
<path d="M122.137 21.8537H125.932L128.28 29.2927H128.328L130.296 21.8537H134.186L136.321 29.2927H136.369L138.527 21.8537H142.132L138.029 33.7073H134.518L132.123 25.8293H132.075L129.94 33.7073H126.359L122.137 21.8537Z" fill="#FAFAFA"/>
<path d="M143.864 16.439H147.564V30.1951H154.419V33.7073H143.864V16.439Z" fill="#FAFAFA"/>
<path d="M155.584 27.7805C155.584 26.8374 155.75 25.9837 156.082 25.2195C156.414 24.4553 156.865 23.8049 157.434 23.2683C158.02 22.7154 158.699 22.2927 159.474 22C160.265 21.7073 161.103 21.561 161.989 21.561C162.874 21.561 163.704 21.7073 164.479 22C165.27 22.2927 165.95 22.7154 166.519 23.2683C167.104 23.8049 167.563 24.4553 167.895 25.2195C168.227 25.9837 168.393 26.8374 168.393 27.7805C168.393 28.7236 168.227 29.5772 167.895 30.3415C167.563 31.1057 167.104 31.7642 166.519 32.3171C165.95 32.8537 165.27 33.2683 164.479 33.561C163.704 33.8537 162.874 34 161.989 34C161.103 34 160.265 33.8537 159.474 33.561C158.699 33.2683 158.02 32.8537 157.434 32.3171C156.865 31.7642 156.414 31.1057 156.082 30.3415C155.75 29.5772 155.584 28.7236 155.584 27.7805ZM159.142 27.7805C159.142 28.6748 159.387 29.3984 159.878 29.9512C160.384 30.5041 161.087 30.7805 161.989 30.7805C162.89 30.7805 163.586 30.5041 164.076 29.9512C164.582 29.3984 164.835 28.6748 164.835 27.7805C164.835 26.8862 164.582 26.1626 164.076 25.6098C163.586 25.0569 162.89 24.7805 161.989 24.7805C161.087 24.7805 160.384 25.0569 159.878 25.6098C159.387 26.1626 159.142 26.8862 159.142 27.7805Z" fill="#FAFAFA"/>
<path d="M170.489 21.8537H174.047V23.7561H174.094C174.474 23.0244 174.924 22.4797 175.446 22.122C175.968 21.748 176.624 21.561 177.415 21.561C177.62 21.561 177.826 21.5691 178.031 21.5854C178.237 21.6016 178.427 21.6341 178.601 21.6829V25.0244C178.348 24.9431 178.095 24.8862 177.842 24.8537C177.605 24.8049 177.352 24.7805 177.083 24.7805C176.403 24.7805 175.865 24.878 175.47 25.0732C175.074 25.2683 174.766 25.5447 174.545 25.9024C174.339 26.2439 174.205 26.6585 174.141 27.1463C174.078 27.6341 174.047 28.1707 174.047 28.7561V33.7073H170.489V21.8537Z" fill="#FAFAFA"/>
<path d="M190.642 31.6585C190.073 32.4065 189.353 32.9837 188.484 33.3902C187.614 33.7967 186.712 34 185.779 34C184.894 34 184.056 33.8537 183.265 33.561C182.49 33.2683 181.81 32.8537 181.225 32.3171C180.656 31.7642 180.205 31.1057 179.873 30.3415C179.541 29.5772 179.375 28.7236 179.375 27.7805C179.375 26.8374 179.541 25.9837 179.873 25.2195C180.205 24.4553 180.656 23.8049 181.225 23.2683C181.81 22.7154 182.49 22.2927 183.265 22C184.056 21.7073 184.894 21.561 185.779 21.561C186.602 21.561 187.345 21.7073 188.009 22C188.689 22.2927 189.258 22.7154 189.717 23.2683C190.191 23.8049 190.555 24.4553 190.808 25.2195C191.061 25.9837 191.188 26.8374 191.188 27.7805V28.9268H182.933C183.075 29.626 183.384 30.187 183.858 30.6098C184.333 31.0163 184.918 31.2195 185.613 31.2195C186.199 31.2195 186.689 31.0894 187.084 30.8293C187.495 30.5528 187.851 30.2033 188.151 29.7805L190.642 31.6585ZM187.63 26.439C187.645 25.8211 187.448 25.2927 187.037 24.8537C186.625 24.4146 186.096 24.1951 185.447 24.1951C185.052 24.1951 184.704 24.2602 184.404 24.3902C184.103 24.5203 183.842 24.6911 183.621 24.9024C183.415 25.0976 183.249 25.3333 183.123 25.6098C183.012 25.8699 182.949 26.1463 182.933 26.439H187.63Z" fill="#FAFAFA"/>
<path d="M193.422 31.6098C193.422 31.3008 193.478 31.0081 193.588 30.7317C193.699 30.4553 193.849 30.2195 194.039 30.0244C194.245 29.813 194.482 29.6504 194.751 29.5366C195.02 29.4228 195.304 29.3659 195.605 29.3659C195.905 29.3659 196.19 29.4228 196.459 29.5366C196.727 29.6504 196.957 29.813 197.146 30.0244C197.352 30.2195 197.51 30.4553 197.621 30.7317C197.732 31.0081 197.787 31.3008 197.787 31.6098C197.787 31.9187 197.732 32.2114 197.621 32.4878C197.51 32.7642 197.352 33.0081 197.146 33.2195C196.957 33.4146 196.727 33.5691 196.459 33.6829C196.19 33.7967 195.905 33.8537 195.605 33.8537C195.304 33.8537 195.02 33.7967 194.751 33.6829C194.482 33.5691 194.245 33.4146 194.039 33.2195C193.849 33.0081 193.699 32.7642 193.588 32.4878C193.478 32.2114 193.422 31.9187 193.422 31.6098Z" fill="#4648FF"/>
<path d="M207.604 32.2195H207.557C207.162 32.8537 206.632 33.3089 205.968 33.5854C205.319 33.8618 204.632 34 203.904 34C203.366 34 202.845 33.9187 202.339 33.7561C201.848 33.6098 201.414 33.3821 201.034 33.0732C200.655 32.7642 200.354 32.3821 200.133 31.9268C199.911 31.4715 199.801 30.9431 199.801 30.3415C199.801 29.6585 199.919 29.0813 200.156 28.6098C200.409 28.1382 200.742 27.748 201.153 27.439C201.58 27.1301 202.062 26.8943 202.6 26.7317C203.137 26.5528 203.691 26.4228 204.26 26.3415C204.845 26.2602 205.422 26.2114 205.991 26.1951C206.577 26.1789 207.114 26.1707 207.604 26.1707C207.604 25.5203 207.375 25.0081 206.917 24.6341C206.474 24.2439 205.944 24.0488 205.327 24.0488C204.742 24.0488 204.205 24.1789 203.714 24.439C203.24 24.6829 202.813 25.0244 202.434 25.4634L200.536 23.4634C201.2 22.8293 201.975 22.3577 202.86 22.0488C203.746 21.7236 204.663 21.561 205.612 21.561C206.656 21.561 207.51 21.6992 208.174 21.9756C208.854 22.2358 209.391 22.626 209.787 23.1463C210.198 23.6667 210.482 24.3089 210.641 25.0732C210.799 25.8211 210.878 26.6911 210.878 27.6829V33.7073H207.604V32.2195ZM206.727 28.5122C206.458 28.5122 206.118 28.5285 205.707 28.561C205.312 28.5772 204.924 28.6423 204.545 28.7561C204.181 28.8699 203.865 29.0407 203.596 29.2683C203.343 29.4959 203.216 29.813 203.216 30.2195C203.216 30.6585 203.398 30.9837 203.762 31.1951C204.126 31.4065 204.505 31.5122 204.9 31.5122C205.248 31.5122 205.58 31.4634 205.897 31.3659C206.229 31.2683 206.521 31.1301 206.774 30.9512C207.027 30.7724 207.225 30.5447 207.367 30.2683C207.525 29.9919 207.604 29.6667 207.604 29.2927V28.5122H206.727Z" fill="#FAFAFA"/>
<path d="M213.157 21.8537H216.715V33.7073H213.157V21.8537ZM212.873 18.122C212.873 17.5366 213.07 17.0407 213.466 16.6341C213.877 16.2114 214.367 16 214.936 16C215.506 16 215.988 16.2114 216.383 16.6341C216.794 17.0407 217 17.5366 217 18.122C217 18.7073 216.794 19.2114 216.383 19.6341C215.988 20.0406 215.506 20.2439 214.936 20.2439C214.367 20.2439 213.877 20.0406 213.466 19.6341C213.07 19.2114 212.873 18.7073 212.873 18.122Z" fill="#FAFAFA"/>
</g>
<defs>
<filter id="filter0_d_433_770" x="0" y="0" width="237" height="70" filterUnits="userSpaceOnUse" color-interpolation-filters="sRGB">
<feFlood flood-opacity="0" result="BackgroundImageFix"/>
<feColorMatrix in="SourceAlpha" type="matrix" values="0 0 0 0 0 0 0 0 0 0 0 0 0 0 0 0 0 0 127 0" result="hardAlpha"/>
<feOffset dy="10"/>
<feGaussianBlur stdDeviation="10"/>
<feComposite in2="hardAlpha" operator="out"/>
<feColorMatrix type="matrix" values="0 0 0 0 0 0 0 0 0 0 0 0 0 0 0 0 0 0 0.25 0"/>
<feBlend mode="normal" in2="BackgroundImageFix" result="effect1_dropShadow_433_770"/>
<feBlend mode="normal" in="SourceGraphic" in2="effect1_dropShadow_433_770" result="shape"/>
</filter>
<filter id="filter1_d_433_770" x="16" y="10" width="38" height="38" filterUnits="userSpaceOnUse" color-interpolation-filters="sRGB">
<feFlood flood-opacity="0" result="BackgroundImageFix"/>
<feColorMatrix  type="matrix" values="0 0 0 0 0 0 0 0 0  0 0 0 0 0 0 0 0 127 0" result="hardAlpha"/>
<feOffset dy="4"/>
<!-- <feGaussianBlur stdDeviation="2"/> -->
<feComposite in2="hardAlpha" operator="out"/>
<feColorMatrix type="matrix" values="0 0 0 0 0 0 0 0 0 0 0 0 0 0 0 0 0 0 0.25 0"/>
<feBlend mode="normal" in2="BackgroundImageFix" result="effect1_dropShadow_433_770"/>
<feBlend mode="normal" in="SourceGraphic" in2="effect1_dropShadow_433_770" result="shape"/>
</filter>
</defs>
</svg>
