<svg width="90" height="89" viewBox="0 0 90 89" fill="none" xmlns="http://www.w3.org/2000/svg">
<path d="M1.75 44.25C1.75 20.3637 21.1137 1 45 1H88.25V44.25C88.25 68.1363 68.8863 87.5 45 87.5C21.1137 87.5 1.75 68.1363 1.75 44.25Z" stroke="#FF4747" stroke-width="2"/>
<path d="M73.6396 41.9887C73.5494 40.7974 73.3996 39.7096 73.1865 38.3208H45.3509C45.3509 42.1373 45.3509 46.3021 45.3356 50.1206H61.461C61.1185 51.9001 60.4206 53.5958 59.4076 55.1102C58.3945 56.6245 57.0863 57.9278 55.5579 58.945C55.5579 58.945 55.5579 58.8792 55.5464 58.8773C53.5727 60.1477 51.3492 60.9985 49.0195 61.3746C46.6837 61.7935 44.2888 61.7833 41.9569 61.3445C39.5889 60.8641 37.347 59.9115 35.3704 58.5461C32.4527 56.5177 30.2024 53.6988 28.8952 50.4349C28.7954 50.1808 28.7033 49.9249 28.6092 49.6651V49.6369L28.6342 49.6181C27.3655 45.9678 27.3621 42.0089 28.6246 38.3565C29.5138 35.7943 30.9772 33.46 32.9074 31.5251C37.4354 26.9333 44.2008 25.2062 50.4381 27.0498C52.8298 27.7689 55.0151 29.0299 56.8173 30.7309L62.2577 25.3974C63.2175 24.4471 64.2139 23.5268 65.1372 22.5444C62.3786 20.0219 59.1407 18.0562 55.6079 16.7593C49.1784 14.4738 42.1449 14.4134 35.6756 16.588C35.4504 16.6633 35.2264 16.7418 35.0037 16.8233C28.0244 19.3955 22.2827 24.44 18.9128 30.9605C17.7228 33.2684 16.8562 35.7233 16.3366 38.2587C13.2551 53.2713 22.5992 68.0487 37.6855 72.0208C42.6172 73.3156 47.86 73.2836 52.8301 72.177C57.3458 71.1774 61.5212 69.0504 64.951 66.0023C68.5294 62.7748 71.0941 58.4745 72.4379 53.907C73.5614 50.0365 73.9684 45.9999 73.6396 41.9887Z" fill="#4648FF"/>
</svg>
