<svg width="16" height="16" viewBox="0 0 16 16" fill="none" xmlns="http://www.w3.org/2000/svg">
<path d="M8.16261 2.06197C8.01137 2.17903 8.00786 2.22378 8.00786 3.4391V4.60623L7.63153 4.67852C6.54829 4.88854 5.48615 5.37398 4.70185 6.0109C3.34427 7.11605 2.45446 8.84435 2.11683 11.0133C2.04649 11.4644 1.97615 12.5247 2.0078 12.6797C2.05704 12.931 2.31027 13.0687 2.53536 12.9654C2.63735 12.9172 2.68659 12.8484 2.85189 12.5179C3.10863 11.998 3.34779 11.6537 3.72411 11.275C4.11802 10.8791 4.52951 10.5864 5.07114 10.3317C5.58814 10.0838 6.0137 9.94262 6.58346 9.83245C6.93165 9.76703 7.70891 9.67752 7.95862 9.67752C8.00082 9.67752 8.00786 9.88409 8.00786 10.8309C8.00786 12.0841 8.01489 12.1357 8.20129 12.2183C8.41583 12.3147 8.51079 12.2803 8.85194 11.9773C10.0513 10.8997 13.8813 7.40525 13.9341 7.33639C14.022 7.22622 14.022 7.03342 13.9341 6.92325C13.8778 6.85095 10.7687 4.01062 9.05945 2.47167C8.55651 2.02066 8.52838 2 8.3877 2C8.29625 2 8.20481 2.02754 8.16261 2.06197Z" fill="url(#paint0_linear_488_4728)"/>
<defs>
<linearGradient id="paint0_linear_488_4728" x1="2" y1="13" x2="16.0682" y2="8.60511" gradientUnits="userSpaceOnUse">
<stop stop-color="#4648FF"/>
<stop offset="0.650677" stop-color="#FF7262"/>
<stop offset="1" stop-color="#FFAEA5"/>
</linearGradient>
</defs>
</svg>
