<svg width="21" height="22" viewBox="0 0 21 22" fill="none" xmlns="http://www.w3.org/2000/svg">
<g clip-path="url(#clip0_849_955)">
<path d="M10.516 21.3132C16.3238 21.3132 21.032 16.6122 21.032 10.8132C21.032 5.01424 16.3238 0.313232 10.516 0.313232C4.70817 0.313232 0 5.01424 0 10.8132C0 16.6122 4.70817 21.3132 10.516 21.3132Z" fill="#E0E0E0"/>
<path d="M10.5158 20.9941C16.2354 20.9941 20.872 16.3645 20.872 10.6537C20.872 4.9428 16.2354 0.313232 10.5158 0.313232C4.79629 0.313232 0.159668 4.9428 0.159668 10.6537C0.159668 16.3645 4.79629 20.9941 10.5158 20.9941Z" fill="white"/>
<mask id="mask0_849_955" style="mask-type:luminance" maskUnits="userSpaceOnUse" x="3" y="3" width="15" height="15">
<path d="M17.2285 9.44097H10.676V12.1537H14.4477C14.0961 13.8771 12.6258 14.8665 10.676 14.8665C8.37464 14.8665 6.52076 13.0154 6.52076 10.7176C6.52076 8.41969 8.37464 6.56863 10.676 6.56863C11.6669 6.56863 12.5618 6.9197 13.265 7.49417L15.3107 5.45161C14.0641 4.3665 12.466 3.69629 10.676 3.69629C6.77646 3.69629 3.64404 6.82395 3.64404 10.7176C3.64404 14.6112 6.77646 17.7388 10.676 17.7388C14.192 17.7388 17.3883 15.1857 17.3883 10.7176C17.3883 10.3027 17.3244 9.85586 17.2285 9.44097Z" fill="white"/>
</mask>
<g mask="url(#mask0_849_955)">
<path d="M3.00488 14.8665V6.5686L8.43867 10.7175L3.00488 14.8665Z" fill="#FBBC05"/>
</g>
<mask id="mask1_849_955" style="mask-type:luminance" maskUnits="userSpaceOnUse" x="3" y="3" width="15" height="15">
<path d="M17.2285 9.44097H10.676V12.1537H14.4477C14.0961 13.8771 12.6258 14.8665 10.676 14.8665C8.37464 14.8665 6.52076 13.0154 6.52076 10.7176C6.52076 8.41969 8.37464 6.56863 10.676 6.56863C11.6669 6.56863 12.5618 6.9197 13.265 7.49417L15.3107 5.45161C14.0641 4.3665 12.466 3.69629 10.676 3.69629C6.77646 3.69629 3.64404 6.82395 3.64404 10.7176C3.64404 14.6112 6.77646 17.7388 10.676 17.7388C14.192 17.7388 17.3883 15.1857 17.3883 10.7176C17.3883 10.3027 17.3244 9.85586 17.2285 9.44097Z" fill="white"/>
</mask>
<g mask="url(#mask1_849_955)">
<path d="M3.00488 6.56874L8.43867 10.7177L10.6761 8.77088L18.3473 7.52619V3.05811H3.00488V6.56874Z" fill="#EA4335"/>
</g>
<mask id="mask2_849_955" style="mask-type:luminance" maskUnits="userSpaceOnUse" x="3" y="3" width="15" height="15">
<path d="M17.2285 9.44097H10.676V12.1537H14.4477C14.0961 13.8771 12.6258 14.8665 10.676 14.8665C8.37464 14.8665 6.52076 13.0154 6.52076 10.7176C6.52076 8.41969 8.37464 6.56863 10.676 6.56863C11.6669 6.56863 12.5618 6.9197 13.265 7.49417L15.3107 5.45161C14.0641 4.3665 12.466 3.69629 10.676 3.69629C6.77646 3.69629 3.64404 6.82395 3.64404 10.7176C3.64404 14.6112 6.77646 17.7388 10.676 17.7388C14.192 17.7388 17.3883 15.1857 17.3883 10.7176C17.3883 10.3027 17.3244 9.85586 17.2285 9.44097Z" fill="white"/>
</mask>
<g mask="url(#mask2_849_955)">
<path d="M3.00488 14.8666L12.5939 7.52619L15.119 7.84534L18.3473 3.05811V18.3773H3.00488V14.8666Z" fill="#34A853"/>
</g>
<mask id="mask3_849_955" style="mask-type:luminance" maskUnits="userSpaceOnUse" x="3" y="3" width="15" height="15">
<path d="M17.2285 9.44097H10.676V12.1537H14.4477C14.0961 13.8771 12.6258 14.8665 10.676 14.8665C8.37464 14.8665 6.52076 13.0154 6.52076 10.7176C6.52076 8.41969 8.37464 6.56863 10.676 6.56863C11.6669 6.56863 12.5618 6.9197 13.265 7.49417L15.3107 5.45161C14.0641 4.3665 12.466 3.69629 10.676 3.69629C6.77646 3.69629 3.64404 6.82395 3.64404 10.7176C3.64404 14.6112 6.77646 17.7388 10.676 17.7388C14.192 17.7388 17.3883 15.1857 17.3883 10.7176C17.3883 10.3027 17.3244 9.85586 17.2285 9.44097Z" fill="white"/>
</mask>
<g mask="url(#mask3_849_955)">
<path d="M18.3474 18.3771L8.4387 10.7175L7.16016 9.76009L18.3474 6.5686V18.3771Z" fill="#4285F4"/>
</g>
</g>
<defs>
<clipPath id="clip0_849_955">
<rect width="21" height="21" fill="white" transform="translate(0 0.313232)"/>
</clipPath>
</defs>
</svg>
