<svg
  xmlns="http://www.w3.org/2000/svg"
  version="1.1"
  width="16"
  height="16"
  style="shape-rendering: geometricPrecision; image-rendering: auto;     text-rendering: geometricprecision;"
  fillRule="evenodd"
  clipRule="evenodd"
  viewBox="0 0 380 360" 
  xmlnsXlink="http://www.w3.org/1999/xlink"
>
  <g transform="scale(2.4)">
    
    <path
      style=" opacity: '1' "
      
      d="M 57.5,34.5 C 58.8221,34.33 59.9887,34.6634 61,35.5C 62.685,41.0409 65.5183,45.8743 69.5,50C 74.0687,53.1121 78.7354,55.9454 83.5,58.5C 78.162,61.1669 73.162,64.3336 68.5,68C 64.7981,72.5058 61.7981,77.3392 59.5,82.5C 54.3316,71.1655 45.9983,62.9989 34.5,58C 46.4636,54.2049 54.1302,46.3716 57.5,34.5 Z"
    />
    <path
      style=" opacity: '1' "
      
      d="M 116.5,45.5 C 117.496,45.4142 118.329,45.7476 119,46.5C 123.711,62.0443 133.878,72.0443 149.5,76.5C 140.299,79.6942 132.466,85.0275 126,92.5C 123.137,97.5672 120.304,102.567 117.5,107.5C 112.956,92.7892 103.289,83.2892 88.5,79C 87.6433,78.3109 86.9767,77.4776 86.5,76.5C 97.2297,73.2126 105.73,66.8793 112,57.5C 113.998,53.6701 115.498,49.6701 116.5,45.5 Z"
    />
    <path
      style=" opacity: '1' "
      fill="#efefef"
      d="M 58.5,49.5 C 61.7677,52.4271 65.1011,55.4271 68.5,58.5C 65.2635,61.2806 62.2635,64.2806 59.5,67.5C 56.1667,64.8333 53.1667,61.8333 50.5,58.5C 53.189,55.4802 55.8556,52.4802 58.5,49.5 Z"
    />
    <path
      style=" opacity: '1' "
      fill="#f6f6f6"
      d="M 116.5,62.5 C 121.592,67.4171 126.926,72.2504 132.5,77C 127,81.1667 122.167,86 118,91.5C 113.79,85.6225 108.623,80.7892 102.5,77C 108.737,73.5977 113.404,68.7644 116.5,62.5 Z"
    />
    <path
      style=" opacity: '1' "
      
      d="M 74.5,84.5 C 77.0033,90.994 80.67,96.8273 85.5,102C 89.5537,105.527 94.2204,107.694 99.5,108.5C 99.719,109.675 99.3857,110.675 98.5,111.5C 92.6282,113.35 87.4616,116.35 83,120.5C 79.8136,124.873 77.147,129.54 75,134.5C 72.6362,128.271 69.1362,122.771 64.5,118C 59.9607,115.231 55.2941,112.731 50.5,110.5C 54.7658,108.029 59.0992,105.529 63.5,103C 69.0935,97.9798 72.7602,91.8131 74.5,84.5 Z"
    />
    <path
      style=" opacity: '1' "
      fill="#f2f2f2"
      d="M 74.5,100.5 C 77.306,104.137 80.6393,107.304 84.5,110C 80.6667,112.5 77.5,115.667 75,119.5C 72.5,115.667 69.3333,112.5 65.5,110C 69.3802,107.621 72.3802,104.454 74.5,100.5 Z"
    />
  </g>
</svg>