<svg width="16" height="16" viewBox="0 0 16 16" fill='none'  xmlns="http://www.w3.org/2000/svg">
<path d="M4.72565 3.17487L4.05898 3.69524C3.04787 4.48446 2.54232 4.87907 2.27116 5.43547C2 5.99186 2 6.63462 2 7.92012V9.31425C2 11.8374 2 13.0989 2.78105 13.8828C3.5621 14.6666 4.81917 14.6666 7.33333 14.6666H8.66667C11.1808 14.6666 12.4379 14.6666 13.2189 13.8828C14 13.0989 14 11.8374 14 9.31425V7.92012C14 6.63462 14 5.99186 13.7289 5.43547C13.4577 4.87907 12.9521 4.48446 11.941 3.69524L11.2743 3.17487C9.7014 1.94713 8.91493 1.33325 8 1.33325C7.08507 1.33325 6.29858 1.94713 4.72565 3.17487Z" stroke-width='1.5'  strokeLinejoin="round"/>
</svg>
