<svg width="16" height="16" viewBox="0 0 16 16" fill='none'  xmlns="http://www.w3.org/2000/svg">
<path d="M9.33337 3.99992H14.6667M12 1.33325V6.66659"  stroke-linecap="round" stroke-width='1.5' stroke-linejoin="round"/>
<path d="M4.06591 13C3.19917 12.9147 2.54987 12.6544 2.11442 12.2189C1.33337 11.4379 1.33337 10.1808 1.33337 7.66667V7.33333C1.33337 4.81917 1.33337 3.5621 2.11442 2.78105C2.89547 2 4.15255 2 6.66671 2H7.66671M4.33337 12C4.1964 12.6679 3.58517 14.111 4.2105 14.5767C4.53737 14.8145 5.05823 14.5605 6.09995 14.0526C6.83104 13.6961 7.57084 13.2873 8.36977 13.1033C8.66211 13.0367 8.95971 13.0083 9.33337 13C11.8475 13 13.1046 13 13.8856 12.2189C14.6314 11.4732 14.6651 10.2935 14.6666 8" stroke-width='1.5'   stroke-linecap="round"/>
<path d="M5.33337 9.33333H9.33337M5.33337 6H7.33337" stroke-linecap="round"  stroke-width='1.5'  stroke-linejoin="round"/>
</svg>
