<svg width="14" height="12" viewBox="0 0 14 12" fill="none" xmlns="http://www.w3.org/2000/svg">
<path d="M2.77214 0.0327787C2.74478 0.0601325 2.72427 0.135355 2.72427 0.196901C2.72427 0.415731 2.24558 1.27738 1.92417 1.63297C1.5207 2.08431 1.13091 2.35101 0.55648 2.563C0.296619 2.65874 0.0641123 2.76132 0.0367585 2.78867C-0.0726566 2.89125 0.0709507 3.04853 0.351327 3.13743C1.34974 3.43149 2.26609 4.29997 2.62169 5.29154C2.8542 5.92752 3.03884 5.94803 3.20296 5.35309C3.41495 4.6077 4.24924 3.68451 5.02882 3.33575C6.03408 2.89125 6.05459 2.84338 5.35023 2.59036C4.31763 2.2074 3.55172 1.42782 3.2098 0.42257C3.1209 0.149032 3.03884 0.0191016 2.94994 0.00542498C2.88155 -0.00825214 2.79949 0.00542498 2.77214 0.0327787Z" fill="#0386FF"/>
<path d="M9.72696 1.34563C9.68593 1.37298 9.59703 1.57814 9.52865 1.80381C9.13202 3.18517 8.02419 4.32719 6.64966 4.75118C6.14362 4.90846 6.06839 4.94949 6.08891 5.07942C6.10258 5.18884 6.212 5.25722 6.56076 5.36664C7.31983 5.61282 7.84639 5.93423 8.40714 6.48814C8.98157 7.06257 9.27562 7.52758 9.49445 8.23194C9.58335 8.4918 9.67909 8.73799 9.71328 8.77902C9.82954 8.90895 9.97998 8.71063 10.1715 8.15672C10.6365 6.80955 11.6075 5.859 13.0026 5.39399C13.7343 5.14781 13.7616 5.01104 13.1188 4.80588C11.5733 4.30668 10.5886 3.32194 10.0826 1.77645C9.93895 1.33195 9.87057 1.24989 9.72696 1.34563Z" fill="#0386FF"/>
<path d="M4.68675 6.05737C4.66624 6.08473 4.58418 6.3104 4.50212 6.55658C4.14652 7.61654 3.26436 8.48502 2.19072 8.81327C1.65048 8.97739 1.66416 9.11416 2.24543 9.31248C3.38745 9.69543 4.16703 10.4682 4.51579 11.5623C4.70043 12.1436 4.80301 12.1436 5.00816 11.576C5.43898 10.3929 6.20489 9.6544 7.37426 9.28512C7.64096 9.20306 7.75038 9.13468 7.75038 9.05261C7.75038 8.97055 7.64096 8.90217 7.37426 8.82011C6.79299 8.63547 6.42372 8.41664 5.9929 8.00633C5.50053 7.54132 5.22015 7.10366 5.015 6.50871C4.87139 6.07789 4.76198 5.92744 4.68675 6.05737Z" fill="#0386FF"/>
</svg>
