<svg width="14" height="12" viewBox="0 0 14 12" fill="none" xmlns="http://www.w3.org/2000/svg">
<path d="M3.1945 0.0325398C3.16714 0.0598936 3.14663 0.135117 3.14663 0.196662C3.14663 0.415493 2.66794 1.27714 2.34653 1.63273C1.94306 2.08407 1.55327 2.35077 0.978843 2.56276C0.718982 2.6585 0.486475 2.76108 0.459122 2.78843C0.349707 2.89101 0.493314 3.04829 0.77369 3.13719C1.7721 3.43124 2.68845 4.29973 3.04405 5.2913C3.27656 5.92727 3.4612 5.94779 3.62532 5.35285C3.83731 4.60746 4.6716 3.68427 5.45118 3.33551C6.45643 2.89101 6.47695 2.84314 5.77259 2.59012C4.73998 2.20716 3.97408 1.42758 3.63216 0.422331C3.54326 0.148793 3.4612 0.0188632 3.3723 0.00518608C3.30391 -0.00849056 3.22185 0.00518608 3.1945 0.0325398Z" fill="#4648FF"/>
<path d="M10.1493 1.34564C10.1083 1.37299 10.0194 1.57814 9.95101 1.80381C9.55438 3.18518 8.44655 4.3272 7.07202 4.75118C6.56598 4.90846 6.49076 4.94949 6.51127 5.07942C6.52495 5.18884 6.63436 5.25722 6.98312 5.36664C7.74219 5.61282 8.26875 5.93423 8.8295 6.48814C9.40393 7.06257 9.69798 7.52758 9.91681 8.23194C10.0057 8.4918 10.1015 8.73799 10.1356 8.77902C10.2519 8.90895 10.4023 8.71063 10.5938 8.15672C11.0588 6.80955 12.0299 5.85901 13.4249 5.39399C14.1566 5.14781 14.184 5.01104 13.5412 4.80589C11.9957 4.30668 11.011 3.32195 10.5049 1.77646C10.3613 1.33196 10.2929 1.2499 10.1493 1.34564Z" fill="#4648FF"/>
<path d="M5.10936 6.05738C5.08884 6.08473 5.00678 6.3104 4.92472 6.55659C4.56912 7.61655 3.68696 8.48503 2.61333 8.81327C2.07309 8.97739 2.08677 9.11416 2.66804 9.31248C3.81005 9.69543 4.58964 10.4682 4.9384 11.5623C5.12303 12.1436 5.22561 12.1436 5.43076 11.576C5.86159 10.393 6.62749 9.6544 7.79686 9.28512C8.06356 9.20306 8.17298 9.13468 8.17298 9.05262C8.17298 8.97056 8.06356 8.90217 7.79686 8.82011C7.2156 8.63547 6.84632 8.41664 6.4155 8.00634C5.92313 7.54132 5.64276 7.10366 5.4376 6.50872C5.294 6.0779 5.18458 5.92745 5.10936 6.05738Z" fill="#4648FF"/>
</svg>
