<svg width="52" height="52" viewBox="0 0 52 52" fill="none" xmlns="http://www.w3.org/2000/svg">
<g clip-path="url(#clip0_477_2921)">
<path d="M16.0625 10.1313C14.7 10.3126 13.4625 11.2001 12.85 12.4438C12.475 13.2001 12.35 13.7813 12.3937 14.5626C12.4562 15.6938 12.8375 16.5376 13.65 17.3501C14.2187 17.9126 14.7187 18.2251 15.4375 18.4501C16.1062 18.6563 17.2125 18.6563 17.8437 18.4438C18.6 18.1938 19.1187 17.8876 19.625 17.3751C20.3625 16.6313 20.7437 15.8626 20.8625 14.8626C21.2062 12.1063 18.825 9.76259 16.0625 10.1313Z" fill="white"/>
<path d="M34.6772 10.0386C33.3147 10.2198 32.0772 11.1073 31.4647 12.3511C31.0897 13.1073 30.9647 13.6886 31.0085 14.4698C31.071 15.6011 31.4522 16.4448 32.2647 17.2573C32.8335 17.8198 33.3335 18.1323 34.0522 18.3573C34.721 18.5636 35.8272 18.5636 36.4585 18.3511C37.2147 18.1011 37.7335 17.7948 38.2397 17.2823C38.9772 16.5386 39.3585 15.7698 39.4772 14.7698C39.821 12.0136 37.4397 9.66981 34.6772 10.0386Z" fill="white"/>
<path d="M11.4625 29.0252C10.4625 29.3564 9.84371 30.3814 10.05 31.3689C10.1375 31.7752 10.5437 32.6939 10.9875 33.4689C13.6687 38.1627 18.4062 41.1689 24.125 41.8127C24.9625 41.9064 27.0187 41.9064 27.875 41.8189C30.8937 41.4877 33.8437 40.3939 36.1875 38.7314C38.575 37.0377 40.4687 34.7752 41.6625 32.1877C41.9437 31.5814 41.9625 31.4939 41.9687 31.0314C41.9687 30.6189 41.9375 30.4689 41.8 30.1752C41.4062 29.3252 40.4812 28.8439 39.5812 29.0064C38.775 29.1564 38.3812 29.5189 37.8312 30.6252C37.1375 32.0252 36.4 33.0439 35.3062 34.1064C33.2625 36.0939 30.5687 37.3502 27.625 37.6877C26.9687 37.7627 25.1937 37.7814 24.6375 37.7189C21.7437 37.3877 19.3125 36.3814 17.2687 34.6627C15.9312 33.5377 15.0062 32.3377 14.1812 30.6502C13.7125 29.6814 13.4312 29.3502 12.8875 29.1064C12.525 28.9502 11.8187 28.9064 11.4625 29.0252Z" fill="white"/>
</g>
<defs>
<clipPath id="clip0_477_2921">
<rect width="32" height="32" fill="white" transform="translate(10 10)"/>
</clipPath>
</defs>
</svg>
