<svg width="16" height="16" viewBox="0 0 16 16" fill="none" xmlns="http://www.w3.org/2000/svg">
<g clip-path="url(#clip0_488_4713)">
<path d="M3.65243 1.05737C3.05633 1.13667 2.51493 1.52495 2.24696 2.06909C2.0829 2.39995 2.02821 2.65424 2.04735 2.99604C2.07469 3.49096 2.24149 3.8601 2.59696 4.21557C2.84579 4.46167 3.06454 4.59838 3.37899 4.69682C3.67157 4.78706 4.15555 4.78706 4.43172 4.69409C4.76258 4.58471 4.98954 4.45073 5.21102 4.22651C5.53368 3.90112 5.70047 3.56479 5.75243 3.12729C5.90282 1.92143 4.86102 0.896041 3.65243 1.05737Z" fill="url(#paint0_linear_488_4713)"/>
<path d="M11.7965 1.0166C11.2004 1.09589 10.659 1.48418 10.391 2.02832C10.2269 2.35918 10.1723 2.61347 10.1914 2.95527C10.2187 3.45019 10.3855 3.81933 10.741 4.1748C10.9898 4.42089 11.2086 4.55761 11.523 4.65605C11.8156 4.74629 12.2996 4.74629 12.5758 4.65332C12.9066 4.54394 13.1336 4.40996 13.3551 4.18574C13.6777 3.86035 13.8445 3.52402 13.8965 3.08652C14.0469 1.88066 13.0051 0.855269 11.7965 1.0166Z" fill="url(#paint1_linear_488_4713)"/>
<path d="M1.63993 9.32333C1.20243 9.46825 0.931723 9.91669 1.02196 10.3487C1.06024 10.5265 1.23797 10.9284 1.43211 11.2675C2.60516 13.321 4.67782 14.6362 7.17977 14.9179C7.54618 14.9589 8.44579 14.9589 8.82039 14.9206C10.1411 14.7757 11.4317 14.2972 12.4571 13.5698C13.5016 12.8288 14.3302 11.839 14.8524 10.7069C14.9755 10.4417 14.9837 10.4034 14.9864 10.2011C14.9864 10.0206 14.9727 9.95497 14.9126 9.82646C14.7403 9.45458 14.3356 9.24403 13.9419 9.31513C13.5891 9.38075 13.4169 9.53935 13.1763 10.0233C12.8727 10.6358 12.5501 11.0815 12.0716 11.5464C11.1774 12.4159 9.99891 12.9655 8.71102 13.1132C8.42391 13.146 7.64735 13.1542 7.40399 13.1268C6.13797 12.9819 5.0743 12.5417 4.18016 11.7897C3.595 11.2975 3.19032 10.7725 2.82938 10.0343C2.6243 9.61044 2.50125 9.46552 2.26336 9.35888C2.10477 9.29052 1.79579 9.27138 1.63993 9.32333Z" fill="url(#paint2_linear_488_4713)"/>
</g>
<defs>
<linearGradient id="paint0_linear_488_4713" x1="2.0437" y1="4.76416" x2="6.47157" y2="3.49629" gradientUnits="userSpaceOnUse">
<stop stop-color="#4648FF"/>
<stop offset="0.650677" stop-color="#FF7262"/>
<stop offset="1" stop-color="#FFAEA5"/>
</linearGradient>
<linearGradient id="paint1_linear_488_4713" x1="10.1877" y1="4.72339" x2="14.6156" y2="3.45552" gradientUnits="userSpaceOnUse">
<stop stop-color="#4648FF"/>
<stop offset="0.650677" stop-color="#FF7262"/>
<stop offset="1" stop-color="#FFAEA5"/>
</linearGradient>
<linearGradient id="paint2_linear_488_4713" x1="1.00464" y1="14.949" x2="12.9888" y2="6.4643" gradientUnits="userSpaceOnUse">
<stop stop-color="#4648FF"/>
<stop offset="0.650677" stop-color="#FF7262"/>
<stop offset="1" stop-color="#FFAEA5"/>
</linearGradient>
<clipPath id="clip0_488_4713">
<rect width="14" height="14" fill="white" transform="translate(1 1)"/>
</clipPath>
</defs>
</svg>
