<svg width="16" height="16" viewBox="0 0 16 16" fill="none" xmlns="http://www.w3.org/2000/svg">
<path d="M7.42183 2.26564C5.5187 2.50002 3.88745 3.58439 2.9437 5.24377C2.50933 6.00627 2.19058 7.08439 2.18745 7.79689C2.18745 7.90001 2.17495 8.00314 2.16245 8.02189C2.1437 8.05001 1.92495 8.06251 1.3187 8.06876L0.496826 8.07814L2.21558 9.98439C3.15933 11.0313 3.9437 11.8906 3.9562 11.8938C3.97183 11.9 4.7562 11.0406 5.69995 9.99064L7.4187 8.07814L6.56558 8.06876L5.71558 8.06251L5.7312 7.92814C5.74058 7.85626 5.7562 7.70001 5.76558 7.58439C5.81558 7.05939 6.05308 6.30314 6.32495 5.80001C7.0437 4.48439 8.2937 3.56252 9.75933 3.26564C10.1406 3.19064 10.7281 3.15314 11.0625 3.18439C11.225 3.20002 11.3625 3.20939 11.3687 3.20314C11.3875 3.18752 10.9375 2.93439 10.625 2.78439C9.63745 2.31876 8.49683 2.13126 7.42183 2.26564Z" fill="url(#paint0_linear_488_4686)"/>
<path d="M10.3125 5.99073C9.375 7.03448 8.60625 7.89698 8.6 7.9126C8.59375 7.9251 8.96875 7.9376 9.43438 7.9376H10.2812L10.2625 8.13135C10.15 9.44698 9.66563 10.5032 8.76875 11.3907C8.0125 12.1407 7.04688 12.6189 5.96875 12.7814C5.71563 12.8189 4.92812 12.8282 4.73125 12.797L4.60938 12.7782L4.78125 12.8907C5.22813 13.1907 6.07187 13.5251 6.70312 13.6532C8.21563 13.9657 9.84375 13.6532 11.125 12.8126C11.5406 12.5376 11.8094 12.3126 12.1875 11.9157C12.7063 11.3751 13.0531 10.8501 13.35 10.1564C13.6094 9.55948 13.7969 8.75323 13.8219 8.14073L13.8281 7.95323L14.6656 7.9376L15.5031 7.92198L13.7781 6.00635C12.8313 4.95635 12.0469 4.09385 12.0344 4.09698C12.025 4.09698 11.25 4.9501 10.3125 5.99073Z" fill="url(#paint1_linear_488_4686)"/>
<defs>
<linearGradient id="paint0_linear_488_4686" x1="0.496826" y1="11.8938" x2="13.1731" y2="7.81262" gradientUnits="userSpaceOnUse">
<stop stop-color="#4648FF"/>
<stop offset="0.650677" stop-color="#FF7262"/>
<stop offset="1" stop-color="#FFAEA5"/>
</linearGradient>
<linearGradient id="paint1_linear_488_4686" x1="4.60938" y1="13.772" x2="17.3069" y2="9.67779" gradientUnits="userSpaceOnUse">
<stop stop-color="#4648FF"/>
<stop offset="0.650677" stop-color="#FF7262"/>
<stop offset="1" stop-color="#FFAEA5"/>
</linearGradient>
</defs>
</svg>
