<svg width="834" height="946" viewBox="0 0 834 946" fill="none" xmlns="http://www.w3.org/2000/svg">
<path opacity="0.6" d="M1225.97 180.755L1197.34 179.909C990.095 173.785 853.145 376.307 948.59 547.763L962.306 572.403C1052.02 733.561 922.376 923.715 727.62 916.634L659.511 914.157C518.597 909.033 414.767 1033.87 455.492 1159.45M1209.9 171.236L1181.27 170.39C974.025 164.265 837.075 366.787 932.519 538.243L946.236 562.884C1035.95 724.041 906.306 914.195 711.55 907.114L643.44 904.637C502.527 899.514 398.697 1024.35 439.421 1149.93M1193.82 161.724L1165.2 160.878C957.954 154.754 821.004 357.275 916.448 528.731L930.165 553.372C1019.88 714.529 890.235 904.683 695.479 897.602L627.37 895.126C486.456 890.002 382.626 1014.84 423.351 1140.42M1177.75 152.204L1149.13 151.358C941.883 145.234 804.933 347.755 900.377 519.212L914.094 543.852C1003.81 705.01 874.164 895.164 679.408 888.082L611.298 885.606C470.385 880.482 366.555 1005.32 407.279 1130.9M1161.68 142.691L1133.06 141.845C925.812 135.721 788.862 338.242 884.306 509.699L898.023 534.339C987.734 695.496 858.093 885.65 663.337 878.569L595.228 876.093C454.314 870.969 350.484 995.804 391.209 1121.39M1145.61 133.172L1116.99 132.327C909.741 126.202 772.791 328.724 868.235 500.18L881.952 524.821C971.663 685.978 842.022 876.132 647.266 869.051L579.156 866.574C438.243 861.451 334.413 986.286 375.137 1111.87M1129.54 123.659L1100.91 122.813C893.667 116.689 756.717 319.211 852.161 490.667L865.878 515.307C955.59 676.465 825.948 866.619 631.192 859.538L563.083 857.061C422.169 851.937 318.339 976.772 359.064 1102.35M1113.47 114.146L1084.85 113.3C877.599 107.176 740.649 309.698 836.094 481.154L849.81 505.794C939.522 666.952 809.88 857.106 615.124 850.025L547.015 847.548C406.101 842.425 302.271 967.259 342.996 1092.84M1097.4 104.626L1068.77 103.781C861.526 97.6564 724.576 300.178 820.02 471.634L833.737 496.275C923.448 657.432 793.807 847.586 599.051 840.505L530.941 838.028C390.028 832.905 286.198 957.74 326.922 1083.32M1081.33 95.1135L1052.7 94.2675C845.455 88.1434 708.505 290.665 803.949 462.121L817.666 486.761C907.378 647.919 777.736 838.073 582.98 830.992L514.871 828.515C373.957 823.392 270.127 948.227 310.852 1073.81M1065.26 85.5963L1036.63 84.7504C829.385 78.6262 692.434 281.148 787.879 452.604L801.595 477.244C891.307 638.402 761.665 828.556 566.909 821.475L498.8 818.998C357.886 813.874 254.057 938.709 294.781 1064.29M1049.18 76.0818L1020.56 75.236C813.313 69.1119 676.363 271.633 771.807 443.09L785.524 467.73C875.236 628.887 745.594 819.041 550.838 811.96L482.729 809.484C341.815 804.36 237.985 929.195 278.71 1054.78M1033.11 66.5674L1004.49 65.7214C797.243 59.5973 660.292 262.119 755.737 433.575L769.453 458.216C859.165 619.373 729.523 809.527 534.767 802.446L466.658 799.969C325.744 794.846 221.915 919.681 262.639 1045.26M1017.04 57.0503L988.417 56.2045C781.171 50.0804 644.221 252.602 739.665 424.058L753.382 448.698C843.094 609.856 713.452 800.01 518.696 792.929L450.587 790.452C309.673 785.329 205.843 910.163 246.568 1035.74M1000.97 47.5358L972.347 46.6901C765.101 40.5659 628.151 243.088 723.595 414.544L737.312 439.184C827.023 600.342 697.382 790.496 502.626 783.414L434.517 780.938C293.603 775.814 189.773 900.649 230.498 1026.23M985.28 38.2471L956.656 37.4012C749.41 31.277 612.459 233.799 707.904 405.255L721.62 429.895C811.332 591.053 681.69 781.207 486.934 774.125L418.825 771.649C277.911 766.525 174.082 891.36 214.806 1016.94M969.59 28.9532L940.965 28.1072C733.719 21.9831 596.769 224.505 692.213 395.961L705.93 420.601C795.641 581.759 666 771.913 471.244 764.831L403.134 762.355C262.221 757.231 158.391 882.066 199.115 1007.65M953.899 19.6643L925.274 18.8184C718.028 12.6942 581.078 215.216 676.522 386.672L690.239 411.312C779.951 572.47 650.309 762.624 455.553 755.543L387.444 753.066C246.53 747.943 142.7 872.777 183.425 998.359M938.207 10.3757L909.583 9.52972C702.337 3.40557 565.386 205.927 660.831 377.383L674.547 402.024C764.259 563.181 634.617 753.335 439.861 746.254L371.752 743.777C230.839 738.654 127.009 863.489 167.733 989.07M922.519 1.08681L893.895 0.240864C686.649 -5.88329 549.698 196.639 645.143 368.095L658.859 392.735C748.571 553.893 618.93 744.046 424.174 736.965L356.064 734.489C215.151 729.365 111.321 854.2 152.045 979.781M906.829 -8.20851L878.204 -9.05446C670.958 -15.1786 534.008 187.343 629.452 358.799L643.169 383.44C732.88 544.597 603.239 734.751 408.483 727.67L340.374 725.193C199.46 720.07 95.6303 844.905 136.355 970.486M891.138 -17.4973L862.514 -18.3432C655.267 -24.4673 518.317 178.054 613.762 349.511L627.478 374.151C717.19 535.308 587.548 725.462 392.792 718.381L324.683 715.905C183.769 710.781 79.9393 835.616 120.664 961.197M875.447 -26.786L846.822 -27.6319C639.576 -33.7561 502.626 168.766 598.07 340.222L611.787 364.862C701.498 526.02 571.857 716.174 377.101 709.092L308.992 706.616C168.078 701.492 64.2482 826.327 104.972 951.908M859.756 -36.076L831.132 -36.922C623.885 -43.0462 486.935 159.475 582.38 330.932L596.096 355.572C685.808 516.73 556.166 706.883 361.41 699.802L293.301 697.326C152.387 692.202 48.5575 817.037 89.2818 942.618M844.065 -45.3702L815.441 -46.2161C608.194 -52.3403 471.244 150.181 566.689 321.638L580.405 346.278C670.117 507.435 540.475 697.589 345.719 690.508L277.61 688.032C136.696 682.908 32.8665 807.743 73.5908 933.324M828.374 -54.6591L799.75 -55.505C592.504 -61.6292 455.553 140.893 550.998 312.349L564.714 336.989C654.426 498.147 524.784 688.301 330.028 681.219L261.919 678.743C121.005 673.619 17.1756 798.454 57.8999 924.036M812.683 -63.9477L784.059 -64.7936C576.812 -70.9178 439.862 131.604 535.307 303.06L549.023 327.7C638.735 488.858 509.093 679.012 314.337 671.931L246.228 669.454C105.314 664.33 1.48447 789.165 42.2088 914.747M796.995 -73.2365L768.371 -74.0822C561.124 -80.2064 424.174 122.315 519.619 293.771L533.335 318.412C623.047 479.569 493.405 669.723 298.649 662.642L230.54 660.165C89.6262 655.042 -14.2036 779.877 26.5207 905.458M781.304 -82.5305L752.68 -83.3765C545.434 -89.5006 408.483 113.021 503.928 284.477L517.644 309.118C607.356 470.275 477.715 660.429 282.959 653.348L214.849 650.871C73.9357 645.748 -29.8941 770.583 10.8302 896.164" stroke="url(#paint0_radial_496_13113)" stroke-width="2"/>
<defs>
<radialGradient id="paint0_radial_496_13113" cx="0" cy="0" r="1" gradientUnits="userSpaceOnUse" gradientTransform="translate(594.555 639.256) rotate(128.092) scale(395.243 232.448)">
<stop stop-color="#4648FF" stop-opacity="0.25"/>
<stop offset="1" stop-color="#FF7518" stop-opacity="0.02"/>
</radialGradient>
</defs>
</svg>
