<svg width="212" height="212" viewBox="0 0 212 212" fill="none" xmlns="http://www.w3.org/2000/svg">
<circle cx="106" cy="106" r="106" fill="url(#paint0_linear_487_4590)"/>
<path d="M103.11 66.5103C93.1674 67.2926 84.3891 71.4297 77.5576 78.574C68.7619 87.7869 65.1115 100.563 67.6668 113.27C69.9266 124.586 77.6445 134.738 88.0395 140.022C97.826 144.994 109.872 145.776 119.85 142.056C122.631 141.03 124.961 139.866 125.482 139.257C126.977 137.467 125.673 134.703 123.327 134.703C123.014 134.703 121.884 135.12 120.737 135.659C111.541 139.987 101.163 139.953 92.107 135.572C85.1018 132.2 79.7305 126.829 76.4277 119.893C69.5268 105.396 73.8029 88.2736 86.701 78.6435C90.6295 75.7232 94.9926 73.759 99.9814 72.716C102.606 72.1597 107.3 71.9685 110.116 72.2988C123.692 73.898 135.269 83.9974 138.71 97.2431C139.579 100.615 139.736 101.867 139.823 106.804C139.927 112.105 139.84 112.818 138.884 114.73C137.806 116.886 135.773 118.502 133.356 119.145C129.098 120.241 124.613 117.477 123.448 113.062C123.24 112.192 123.188 110.541 123.188 102.927C123.188 92.8453 123.205 93.0713 122.058 92.2021C120.91 91.3156 119.572 91.4199 118.477 92.4629L117.764 93.1408L116.513 92.2021C113.314 89.7859 109.594 88.656 105.579 88.8646C98.3822 89.247 92.559 93.8709 90.3861 100.928C89.9516 102.336 89.9168 102.701 89.9168 105.413C89.8994 107.986 89.9516 108.542 90.2992 109.741C91.1336 112.627 92.4025 114.835 94.4537 116.99C98.9211 121.666 105.561 123.3 111.732 121.249C113.853 120.536 115.626 119.528 117.469 117.963C118.251 117.286 118.929 116.816 118.963 116.903C119.172 117.529 120.493 119.458 121.345 120.397C125.951 125.421 133.287 126.377 138.954 122.674C142.03 120.675 144.012 117.894 145.055 114.104C145.298 113.235 145.351 112.175 145.351 107.673C145.351 101.641 145.177 100.111 144.134 95.9916C140.292 81.0424 127.777 69.5697 112.497 66.997C109.49 66.4929 105.718 66.3017 103.11 66.5103ZM108.829 94.6357C113.853 95.6961 117.625 100.355 117.625 105.5C117.625 110.663 113.836 115.321 108.76 116.382C107.126 116.729 104.779 116.625 103.197 116.121C97.7738 114.417 94.4537 108.733 95.6357 103.171C96.8873 97.2431 102.867 93.3668 108.829 94.6357Z" fill="#F4F4F4"/>
<path d="M102.333 107.667C102.333 107.667 103.333 107.667 104.667 110C104.667 110 108.373 103.889 111.667 102.667" stroke="#F4F4F4" stroke-width="2" stroke-linecap="round" stroke-linejoin="round"/>
<defs>
<linearGradient id="paint0_linear_487_4590" x1="24.5" y1="16.5" x2="238.884" y2="100.872" gradientUnits="userSpaceOnUse">
<stop stop-color="#4648FF"/>
<stop offset="0.686711" stop-color="#FF7262"/>
<stop offset="1" stop-color="#FFAEA5"/>
</linearGradient>
</defs>
</svg>
